# xmcd
#
# Track frame offsets:
#	151
#	10864
#	23733
#	35608
#	51043
#	62556
#	77075
#	88808
#	99249
#	111374
#	120139
#	131668
#	147949
#	159292
#	170979
#	185894
#
# Disc length: 2664 seconds
# Revision: 1
# Processed by: cddbd v1.5.2PL0 Copyright (c) Steve Scherf et al.
# Submitted via: dBpowerAMP V12.0
#
DISCID=d10a6610
DTITLE=Various Artist - Queen's Country
DYEAR=1998
DGENRE=Country
TTITLE0=Patsy Cline - Honky Tonk Merry Go Round
TTITLE1=Lynn Anderson - Rose Garden
TTITLE2=Dolly Parton - Making Believe
TTITLE3=Billie Jo Spears - Blanket on the Ground
TTITLE4=Lynn Anderson - Listen to a Country Song
TTITLE5=Anne Murray - Both Sides Now
TTITLE6=Barbara Fairchild - You Can't Put the City in a Country Girl
TTITLE7=Patsy Cline - Walking Dream
TTITLE8=Billie Jo Spears - Look What They've Done to My Song
TTITLE9=Anne Murray - Paths of Victory
TTITLE10=Patsy Cline - Crazy Dreams
TTITLE11=Lynn Anderson - The Devil Went Down to Georgia
TTITLE12=Anne Murray - The Last Thing on My Mind
TTITLE13=Barbara Fairchild - Cheatin' Is
TTITLE14=Billie Jo Spears - (Sing Me) an Old Fashioned Song
TTITLE15=Patsy Cline - A Church a Courtroom and Then Goodbye
EXTD=
EXTT0=
EXTT1=
EXTT2=
EXTT3=
EXTT4=
EXTT5=
EXTT6=
EXTT7=
EXTT8=
EXTT9=
EXTT10=
EXTT11=
EXTT12=
EXTT13=
EXTT14=
EXTT15=
PLAYORDER=
